# xmcd
#
# Track frame offsets: 
#        150
#        15509
#        31598
#        47884
#        59517
#        77008
#        78772
#        93033
#        109945
#        124934
#        141725
#        153717
#
# Disc length: 2197 seconds
#
# Revision: 0
# Processed by: cddbd v1.5.1PL0 Copyright (c) Steve Scherf et al.
# Submitted via: ExactAudioCopy v0.95b3
#
DISCID=9608930c
DTITLE=Insane Shane McKane - I Put The Ho' In Hoedown
DYEAR=2004
DGENRE=Country Rap
TTITLE0=I Put The Ho' In Hoedown
TTITLE1=I Always Stand Up Straight In My Handcuffs
TTITLE2=I Punched The Boss
TTITLE3=The Line Up Dance
TTITLE4=The Second Best Head A Man Can Get
TTITLE5=The Nobel Piece A' Ass Prize (Intro)
TTITLE6=The Nobel Piece A' Ass Prize
TTITLE7=She Brings Home The Bacon, I Deliver The Sausage
TTITLE8=He's A Pussy Whipped Cowboy
TTITLE9=Bamm...Lights Out
TTITLE10=Rooster In The Hen House
TTITLE11=The Raunchy Rooster Reprise
EXTD=
EXTT0=
EXTT1=
EXTT2=
EXTT3=
EXTT4=
EXTT5=
EXTT6=
EXTT7=
EXTT8=
EXTT9=
EXTT10=
EXTT11=
PLAYORDER=
